<svg xmlns="http://www.w3.org/2000/svg" version="1.1" xmlns:xlink="http://www.w3.org/1999/xlink" xmlns:svgjs="http://svgjs.com/svgjs" width="51" height="51" x="0" y="0" viewBox="0 0 64 64" style="enable-background:new 0 0 512 512" xml:space="preserve" class=""><g><path d="m40.6 13.4-5.5-.6-2.3-5c-.2-.4-.5-.6-.9-.6s-.7.2-.9.6l-2.3 5-5.5.6c-.4 0-.7.3-.8.7s0 .8.3 1l4.1 3.7-1.1 5.4c-.1.4.1.8.4 1s.7.3 1.1.1l4.8-2.7 4.8 2.7c.2.1.3.1.5.1s.4-.1.6-.2c.3-.2.5-.6.4-1l-1.1-5.4 4.1-3.7c.3-.3.4-.7.3-1-.2-.4-.6-.7-1-.7zm-5.2 4.4c-.3.2-.4.6-.3.9l.8 3.8-3.4-1.9c-.2-.1-.3-.1-.5-.1s-.3 0-.5.1l-3.4 1.9.8-3.8c.1-.3 0-.7-.3-.9l-2.9-2.6 3.9-.4c.4 0 .7-.3.8-.6l1.6-3.5 1.6 3.5c.1.3.4.5.8.6l3.9.4z" fill="#ffffff" data-original="#000000" class=""></path><path d="M60 7h-7V4.6c0-.9-.7-1.6-1.6-1.6H12.6c-.9 0-1.6.7-1.6 1.6V7H4c-.6 0-1 .4-1 1v1c0 6.5 5.1 11.7 11.5 12 2.6 4.3 6.6 7.7 11.5 9.7.9.4 1.9.7 2.9.8L27.1 47H20c-.6 0-1 .4-1 1v12c0 .6.4 1 1 1h24c.6 0 1-.4 1-1V48c0-.6-.4-1-1-1h-7.1L35 31.6c1-.2 2-.5 2.9-.9 4.9-2 8.9-5.4 11.5-9.7C55.9 20.7 61 15.5 61 9V8c0-.6-.4-1-1-1zM5 9h6c.1 3.5.9 6.8 2.3 9.9C8.6 18.1 5 13.9 5 9zm38 50H21V49h22zm-8.1-12h-5.8l1.8-15.2c.4 0 .7.1 1.1.1s.7 0 1.1-.1zm2.3-18.2c-3.4 1.3-7.1 1.3-10.4 0C18.4 25.5 13 17.5 13 8.5V5h38v3.5c0 9-5.4 17-13.8 20.3zm13.5-9.9c1.4-3 2.2-6.4 2.3-9.9h6c0 4.9-3.6 9.1-8.3 9.9z" fill="#ffffff" data-original="#000000" class=""></path><path d="M28 51h8c.6 0 1 .4 1 1s-.4 1-1 1h-8c-.6 0-1-.4-1-1s.4-1 1-1zm-5 5c0 .6.4 1 1 1h16c.6 0 1-.4 1-1s-.4-1-1-1H24c-.6 0-1 .4-1 1z" fill="#ffffff" data-original="#000000" class=""></path></g></svg>