<svg xmlns="http://www.w3.org/2000/svg" version="1.1" xmlns:xlink="http://www.w3.org/1999/xlink" xmlns:svgjs="http://svgjs.com/svgjs" width="52" height="52" x="0" y="0" viewBox="0 0 512 512" style="enable-background:new 0 0 512 512" xml:space="preserve" class=""><g><path d="M46 207H9c-3 0-7-3-7-7v-54c0-4 4-7 7-7h37c19 0 34 15 34 34 0 18-15 34-34 34zm-30-14h30c11 0 20-9 20-20s-9-20-20-20H16z" fill="#ffffff" data-original="#000000" class=""></path><path d="M46 261H9c-3 0-7-4-7-7v-54c0-4 4-7 7-7h37c19 0 34 15 34 34 0 18-15 34-34 34zm-30-14h30c11 0 20-9 20-20s-9-20-20-20H16z" fill="#ffffff" data-original="#000000" class=""></path><path d="M46 314H9c-3 0-7-3-7-7v-53c0-4 4-7 7-7h37c19 0 34 15 34 33 0 19-15 34-34 34zm-30-14h30c11 0 20-9 20-20s-9-19-20-19H16z" fill="#ffffff" data-original="#000000" class=""></path><path d="M46 368H9c-3 0-7-3-7-7v-54c0-4 4-7 7-7h37c19 0 34 16 34 34 0 19-15 34-34 34zm-30-14h30c11 0 20-9 20-20s-9-20-20-20H16zM453 378c-2 0-5 0-7-1l-50-13c-11-3-19-11-22-21-4 2-8 3-13 3h-25c-4 0-7-3-7-7s3-7 7-7h25c6 0 11-3 14-8l26-117c2-7 7-14 14-18 6-4 14-5 22-3l50 13c16 4 26 21 22 36l-28 120c-1 8-6 15-13 19-4 3-10 4-15 4zm-24-179c-2 0-5 1-7 2-4 2-6 5-7 9l-28 121c-2 8 4 17 12 19l50 13c4 2 8 1 12-1 3-2 6-6 7-10l27-120c2-8-3-17-12-19l-50-14h-4z" fill="#ffffff" data-original="#000000" class=""></path><path d="M298 512H70c-25 0-45-20-45-45V361c0-4 3-7 7-7 3 0 7 3 7 7v106c0 17 13 31 31 31h228c17 0 31-14 31-31V223c-4-3-8-7-13-11-17-13-35-27-33-45 0-10 8-20 24-29 7-3 15-5 22-4V45c0-17-14-31-31-31H70c-18 0-31 14-31 31v101c0 4-4 7-7 7-4 0-7-3-7-7V45C25 20 45 0 70 0h228c25 0 45 20 45 45v94c6 3 11 7 17 12l53 53c3 3 3 7 0 10s-7 3-10 0l-53-53c-5-5-10-8-15-10-1 0-2-1-3-2-6-2-13-1-19 2-7 4-16 10-16 17-1 11 14 23 28 33 6 5 11 10 16 14 2 1 2 3 2 5v247c0 25-20 45-45 45z" fill="#ffffff" data-original="#000000" class=""></path><path d="M337 100H32c-4 0-7-3-7-7 0-3 3-7 7-7h305c4 0 7 4 7 7 0 4-3 7-7 7zM337 426H31c-3 0-7-3-7-7 0-3 4-7 7-7h306c4 0 7 4 7 7 0 4-3 7-7 7zM218 57h-67c-4 0-7-3-7-7 0-3 3-7 7-7h67c4 0 7 4 7 7 0 4-3 7-7 7zM230 483h-92c-4 0-7-3-7-7v-27c0-4 3-7 7-7h92c4 0 7 3 7 7v27c0 4-3 7-7 7zm-85-14h78v-13h-78zM92 77c-15 0-27-12-27-27 0-14 12-27 27-27s27 13 27 27c0 15-12 27-27 27zm0-40c-7 0-13 6-13 13 0 8 6 13 13 13s13-5 13-13c0-7-6-13-13-13z" fill="#ffffff" data-original="#000000" class=""></path></g></svg>