<svg xmlns="http://www.w3.org/2000/svg" version="1.1" xmlns:xlink="http://www.w3.org/1999/xlink" xmlns:svgjs="http://svgjs.com/svgjs" width="36" height="36" x="0" y="0" viewBox="0 0 24 24" style="enable-background:new 0 0 512 512" xml:space="preserve" class=""><g><path fill="#2c9bcc" d="M5.632 10.316a16.596 16.596 0 0 0 3.333 4.72 17.334 17.334 0 0 0 4.737 3.332l1.72-3.456L22 15.79v6.175a19.62 19.62 0 0 1-4.228-.246 18.16 18.16 0 0 1-3.965-1.14 19.052 19.052 0 0 1-6.246-4.123 18.682 18.682 0 0 1-4.14-6.245c-.526-1.264-.906-2.591-1.14-3.983S1.965 3.427 2.035 2h6.176l.877 6.596z" data-original="#000000" class=""></path></g></svg>