<svg xmlns="http://www.w3.org/2000/svg" version="1.1" xmlns:xlink="http://www.w3.org/1999/xlink" xmlns:svgjs="http://svgjs.com/svgjs" width="51" height="51" x="0" y="0" viewBox="0 0 445.6 445.6" style="enable-background:new 0 0 512 512" xml:space="preserve" class=""><g><path d="M355.2 114.4c-8-8-18.8-12.8-30.8-12.8H296V27.2c0-7.2-2.4-14-6.8-18.8-4.4-5.2-10.8-8.4-18-8.4h-96.8c-7.2 0-13.6 3.2-18 8.4-4.4 4.8-6.8 11.6-6.8 18.8v74h-28.4c-12 0-23.2 4.8-30.8 12.8-8 8-12.8 18.8-12.8 30.8V362c0 12 4.8 23.2 12.8 30.8 6 6 14 10.4 23.2 12v9.2c0 8.8 3.6 16.8 9.2 22.4 5.6 5.6 13.6 9.2 22.4 9.2h1.2c8.8 0 16.8-3.6 22.4-9.2 5.6-5.6 9.2-13.6 9.2-22.4v-8.4h89.6v8.4c0 8.8 3.6 16.8 9.2 22.4 5.6 5.6 13.6 9.2 22.4 9.2h1.2c8.4 0 16.4-3.2 22-8.8l.4-.4c5.6-5.6 9.2-13.6 9.2-22.4v-9.2c8.8-1.6 16.8-6 23.2-12 8-8 12.8-18.8 12.8-30.8V145.2c0-12-4.8-23.2-12.8-30.8zm-190-87.2c0-3.2 1.2-6.4 3.2-8.4 1.6-2 3.6-2.8 6-2.8h96.8c2.4 0 4.4 1.2 6 2.8 2 2 3.2 5.2 3.2 8.4v74H262V52.8c0-5.2-1.2-10-3.6-13.6-2.8-4.8-7.2-7.6-12.4-7.6h-46.4c-5.2 0-9.6 2.8-12.4 7.6-2.4 3.6-3.6 8.4-3.6 13.6v48.8h-18.4V27.2zm34.4 25.6c0-2.4.4-4 1.2-5.6h44c.8 1.2 1.2 3.2 1.2 5.2v48.8h-46.4V52.8zm-37.6 362c0 4.4-1.6 8.4-4.8 11.2-2.8 2.8-6.8 4.8-11.2 4.8h-1.2c-4.4 0-8.4-1.6-11.2-4.8-2.8-2.8-4.8-6.8-4.8-11.2v-8.4H162v8.4zm154.8 0c0 4.4-1.6 8.4-4.8 11.2l-.4.4c-2.8 2.8-6.8 4.4-10.8 4.4h-1.2c-4.4 0-8.4-1.6-11.2-4.8-2.8-2.8-4.8-6.8-4.8-11.2v-8.4h33.2v8.4zm36-52.4c0 7.6-3.2 14.8-8.4 19.6-5.2 5.2-12 8.4-19.6 8.4h-204c-7.6 0-14.8-3.2-19.6-8.4-5.2-5.2-8.4-12-8.4-19.6V145.2c0-7.6 3.2-14.8 8.4-19.6 5.2-5.2 12-8.4 19.6-8.4H324c8.4 0 15.2 3.2 20.4 8.4 5.2 5.2 8.4 12 8.4 19.6v217.2z" fill="#ffffff" data-original="#000000" class=""></path></g></svg>