<svg xmlns="http://www.w3.org/2000/svg" version="1.1" xmlns:xlink="http://www.w3.org/1999/xlink" xmlns:svgjs="http://svgjs.com/svgjs" width="51" height="51" x="0" y="0" viewBox="0 0 60 51" style="enable-background:new 0 0 512 512" xml:space="preserve" class=""><g><g fill="#000" fill-rule="nonzero"><path d="M3 43.055v1a3 3 0 0 0 3 3h3a3 3 0 0 0 3-3v-1h9a1 1 0 0 0 0-2h-9v-14h1a2 2 0 0 0 2-2v-5.586c.001-.53-.21-1.04-.586-1.414l-2-2a1.967 1.967 0 0 0-.414-.309v-3.691h32a1 1 0 0 1 1 1v10a1 1 0 0 0 2 0v-10a3 3 0 0 0-3-3h-7v-3a7.008 7.008 0 0 0-7-7H18a7.008 7.008 0 0 0-7 7v3H3a3 3 0 0 0-3 3v27a3 3 0 0 0 3 3zm7 1a1 1 0 0 1-1 1H6a1 1 0 0 1-1-1v-1h5zm3-24.586v5.586H9v-5.586l1.995-2h.01zm17-9.414H18v-3h12zm-17-3a5.006 5.006 0 0 1 5-5h12a5.006 5.006 0 0 1 5 5v3h-3v-3a2 2 0 0 0-2-2H18a2 2 0 0 0-2 2v3h-3zm-11 6a1 1 0 0 1 1-1h7v3.691c-.151.084-.29.188-.414.309l-2 2A1.986 1.986 0 0 0 7 19.469v5.586a2 2 0 0 0 2 2h1v14H3a1 1 0 0 1-1-1z" fill="#ffffff" data-original="#000000" class=""></path><path d="M59.871 28.725a5.492 5.492 0 0 0-.9-4.4 5.68 5.68 0 0 0-7.438-1.487l-9.442 5.452-8.344-3.565a2.023 2.023 0 0 0-1.792.107l-1.746 1.009a2.008 2.008 0 0 0-.216 3.334l4.545 3.475-2.873 1.659-7.413-3.938a2.016 2.016 0 0 0-1.941.029l-2.138 1.235a2.009 2.009 0 0 0-.735 2.743L24 42.27l.028 6.73c0 .717.385 1.379 1.009 1.732.295.174.63.266.973.268a2.2 2.2 0 0 0 1.114-.32l1.891-1.365c.484-.273.828-.739.947-1.281l.405-1.432c.1 0 .194.026.291.026a6.894 6.894 0 0 0 3.441-.937l5.4-3.114.341 3.5a2.006 2.006 0 0 0 3 1.545l1.722-1a2 2 0 0 0 .978-1.414l1.107-6.771 10.577-6.107a5.549 5.549 0 0 0 2.647-3.605zm-28.662-1.15 1.753-1.009 6.964 2.975-3.511 2.027zm26.709.721a3.543 3.543 0 0 1-1.689 2.304l-9.16 5.288.71-4.342a1 1 0 1 0-1.974-.322L43.566 44.9l-1.733.988-.492-5.058v-.031l-.532-5.473a1 1 0 0 0-1.991.194l.474 4.872-6.192 3.56c-.665.38-1.408.6-2.172.645l1.482-5.245a1 1 0 1 0-1.924-.544l-2.452 8.677c-.009.029-.1.118-.108.147l-1.9 1.359L26 42a.99.99 0 0 0-.135-.5l-4.692-8.131 2.14-1.23 7.9 4.2a1 1 0 0 0 .969-.017l20.351-11.749a3.661 3.661 0 0 1 4.805.909c.586.814.797 1.839.58 2.818z" fill="#ffffff" data-original="#000000" class=""></path></g></g></svg>